<?xml version="1.0" encoding="UTF-8"?>
<svg id="denercon-logo" xmlns="http://www.w3.org/2000/svg" version="1.1" viewBox="0 0 1279.87 170.91">
  <!-- Generator: Adobe Illustrator 30.6.0, SVG Export Plug-In . SVG Version: 2.1.4 Build 109)  -->
  <defs>
    <style>
      .dl-mark-0 {
        fill: #ffffff;
      }

      .dl-mark-1 {
        fill: #ffffff;
      }
    </style>
  </defs>
  <path class="dl-mark-1" d="M143.54,85.45c0,17.27-3.32,32.16-9.95,44.63-6.63,12.47-16.06,22.01-28.32,28.64-12.24,6.63-26.83,9.95-43.72,9.95H0s0-34.29,0-34.29h59.87c9.39,0,17.33-1.58,23.81-4.75,6.47-3.17,11.39-8.33,14.74-15.47,3.35-7.14,5.03-16.71,5.03-28.7s-1.68-21.56-5.03-28.7c-3.34-7.14-8.33-12.3-14.91-15.47-6.58-3.17-14.7-4.75-24.3-4.75H0S0,2.23,0,2.23h61.44c16.99,0,31.6,3.32,43.83,9.99,12.26,6.67,21.69,16.23,28.32,28.66,6.63,12.43,9.95,27.28,9.95,44.57Z"/>
  <path class="dl-mark-0" d="M167.94,68.59V2.23s40.1,0,40.1,0v66.35s-40.1,0-40.1,0Z"/>
  <path class="dl-mark-0" d="M226.61,168.67V2.23s116.06,0,116.06,0v32.73s-75.96,0-75.96,0v33.62s69.93,0,69.93,0v31.95s-69.93,0-69.93,0v35.41s75.85,0,75.85,0v32.73s-115.95,0-115.95,0Z"/>
  <path class="dl-mark-0" d="M503.77,2.23v166.44s-33.96,0-33.96,0l-66.24-96.07h-1.23s0,96.07,0,96.07h-40.1s0-166.44,0-166.44h34.63s65.46,95.84,65.46,95.84h1.34s0-95.84,0-95.84h40.1Z"/>
  <path class="dl-mark-0" d="M525.17,168.67V2.23s116.06,0,116.06,0v32.73s-75.96,0-75.96,0v33.62s69.93,0,69.93,0v31.95s-69.93,0-69.93,0v35.41s75.85,0,75.85,0v32.73s-115.95,0-115.95,0Z"/>
  <path class="dl-mark-0" d="M660.8,168.67V2.23s68.59,0,68.59,0c12.51,0,23.31,2.25,32.39,6.76,9.08,4.51,16.1,10.91,21.06,19.21,4.95,8.3,7.43,18.12,7.43,29.43,0,11.54-2.51,21.34-7.54,29.38-5.03,8.04-12.2,14.17-21.5,18.38-9.31,4.21-20.29,6.31-32.95,6.31h-43.45s0-31.72,0-31.72h35.97c6.03,0,11.11-.78,15.25-2.35,4.13-1.56,7.26-4,9.38-7.32,2.12-3.31,3.18-7.54,3.18-12.68,0-5.14-1.06-9.4-3.18-12.79-2.12-3.39-5.25-5.92-9.38-7.6-4.14-1.68-9.25-2.51-15.36-2.51h-19.77s0,133.93,0,133.93h-40.1ZM751.95,168.67l-40.55-76.07h43.01s41.55,76.07,41.55,76.07h-44.01Z"/>
  <path class="dl-mark-0" d="M879.16,170.91c-15.04,0-28.5-3.31-40.38-9.94-11.88-6.63-21.26-16.29-28.15-28.99-6.89-12.7-10.33-28.17-10.33-46.41,0-18.32,3.48-33.86,10.45-46.64,6.96-12.77,16.42-22.45,28.37-29.04C851.06,3.3,864.41,0,879.16,0c10.05,0,19.36,1.4,27.93,4.19,8.56,2.79,16.1,6.87,22.62,12.23,6.52,5.36,11.79,11.92,15.81,19.66,4.02,7.75,6.55,16.61,7.6,26.59h-40.66c-.52-4.17-1.62-7.95-3.3-11.34-1.67-3.39-3.91-6.27-6.7-8.66-2.79-2.38-6.05-4.23-9.77-5.53-3.72-1.3-7.9-1.95-12.51-1.95-8.04,0-14.97,1.99-20.78,5.98-5.81,3.98-10.28,9.72-13.4,17.2-3.13,7.48-4.69,16.55-4.69,27.2,0,10.95,1.58,20.16,4.75,27.65,3.16,7.48,7.63,13.11,13.4,16.87,5.77,3.76,12.64,5.64,20.61,5.64,4.39,0,8.41-.58,12.06-1.73,3.65-1.15,6.87-2.83,9.66-5.03,2.79-2.2,5.1-4.88,6.93-8.04,1.83-3.16,3.07-6.76,3.74-10.78h40.66c-.75,7.37-2.87,14.67-6.37,21.89-3.5,7.22-8.36,13.76-14.58,19.6-6.22,5.85-13.76,10.52-22.62,14.02-8.86,3.5-18.99,5.25-30.38,5.25Z"/>
  <path class="dl-mark-0" d="M1042.92,170.91c-14.97,0-28.47-3.31-40.49-9.94-12.03-6.63-21.52-16.29-28.48-28.99-6.97-12.7-10.45-28.17-10.45-46.41,0-18.32,3.48-33.86,10.45-46.64,6.96-12.77,16.46-22.45,28.48-29.04C1014.46,3.3,1027.96,0,1042.92,0c14.89,0,28.33,3.3,40.33,9.89,11.99,6.59,21.48,16.27,28.48,29.04,7,12.77,10.5,28.32,10.5,46.64,0,18.25-3.5,33.73-10.5,46.47-7,12.73-16.5,22.4-28.48,28.99-11.99,6.59-25.43,9.89-40.33,9.89ZM1042.92,135.72c7.97,0,14.82-1.94,20.55-5.81,5.73-3.87,10.13-9.53,13.18-16.98,3.05-7.45,4.58-16.57,4.58-27.37,0-10.87-1.53-20.05-4.58-27.54-3.05-7.48-7.45-13.16-13.18-17.03-5.73-3.87-12.59-5.81-20.55-5.81-7.97,0-14.82,1.94-20.55,5.81-5.73,3.87-10.15,9.55-13.24,17.03-3.09,7.48-4.63,16.66-4.63,27.54,0,10.8,1.54,19.92,4.63,27.37,3.09,7.45,7.5,13.11,13.24,16.98,5.73,3.87,12.58,5.81,20.55,5.81Z"/>
  <path class="dl-mark-0" d="M1279.87,2.23v166.44s-33.96,0-33.96,0l-66.24-96.07h-1.23s0,96.07,0,96.07h-40.1s0-166.44,0-166.44h34.63s65.46,95.84,65.46,95.84h1.34s0-95.84,0-95.84h40.1Z"/>
</svg>